<mxfile host="app.diagrams.net" agent="Mozilla/5.0 (Windows NT 10.0; Win64; x64) AppleWebKit/537.36 (KHTML, like Gecko) Chrome/141.0.0.0 Safari/537.36" version="28.2.8">
  <diagram name="Страница — 1" id="k7XejDx9SPEzsmEiI9_V">
    <mxGraphModel dx="1426" dy="957" grid="1" gridSize="10" guides="1" tooltips="1" connect="1" arrows="1" fold="1" page="1" pageScale="1" pageWidth="827" pageHeight="1169" math="0" shadow="0">
      <root>
        <mxCell id="0" />
        <mxCell id="1" parent="0" />
        <mxCell id="9GLl0irz_m333XcAd-_T-2" value="" style="rounded=0;whiteSpace=wrap;html=1;" vertex="1" parent="1">
          <mxGeometry x="24" y="90" width="780" height="60" as="geometry" />
        </mxCell>
        <mxCell id="9GLl0irz_m333XcAd-_T-3" value="" style="ellipse;whiteSpace=wrap;html=1;aspect=fixed;" vertex="1" parent="1">
          <mxGeometry x="60" y="95" width="50" height="50" as="geometry" />
        </mxCell>
        <mxCell id="9GLl0irz_m333XcAd-_T-4" value="WebSite." style="text;html=1;whiteSpace=wrap;strokeColor=none;fillColor=none;align=center;verticalAlign=middle;rounded=0;" vertex="1" parent="1">
          <mxGeometry x="110" y="100" width="100" height="40" as="geometry" />
        </mxCell>
        <mxCell id="9GLl0irz_m333XcAd-_T-5" style="edgeStyle=none;curved=1;rounded=0;orthogonalLoop=1;jettySize=auto;html=1;exitX=1;exitY=0.5;exitDx=0;exitDy=0;fontSize=12;startSize=8;endSize=8;" edge="1" parent="1" source="9GLl0irz_m333XcAd-_T-4" target="9GLl0irz_m333XcAd-_T-4">
          <mxGeometry relative="1" as="geometry" />
        </mxCell>
        <mxCell id="9GLl0irz_m333XcAd-_T-6" value="" style="rounded=0;whiteSpace=wrap;html=1;" vertex="1" parent="1">
          <mxGeometry x="210" y="105" width="560" height="30" as="geometry" />
        </mxCell>
        <mxCell id="9GLl0irz_m333XcAd-_T-8" value="" style="rounded=0;whiteSpace=wrap;html=1;" vertex="1" parent="1">
          <mxGeometry x="24" y="180" width="780" height="60" as="geometry" />
        </mxCell>
        <mxCell id="9GLl0irz_m333XcAd-_T-10" value="WebSite." style="text;html=1;whiteSpace=wrap;strokeColor=none;fillColor=none;align=center;verticalAlign=middle;rounded=0;" vertex="1" parent="1">
          <mxGeometry x="570" y="290" width="140" height="40" as="geometry" />
        </mxCell>
        <mxCell id="9GLl0irz_m333XcAd-_T-11" style="edgeStyle=none;curved=1;rounded=0;orthogonalLoop=1;jettySize=auto;html=1;exitX=1;exitY=0.5;exitDx=0;exitDy=0;fontSize=12;startSize=8;endSize=8;" edge="1" source="9GLl0irz_m333XcAd-_T-10" target="9GLl0irz_m333XcAd-_T-10" parent="1">
          <mxGeometry relative="1" as="geometry" />
        </mxCell>
        <mxCell id="9GLl0irz_m333XcAd-_T-12" value="" style="rounded=0;whiteSpace=wrap;html=1;" vertex="1" parent="1">
          <mxGeometry x="160" y="195" width="610" height="30" as="geometry" />
        </mxCell>
        <mxCell id="9GLl0irz_m333XcAd-_T-13" value="" style="rounded=0;whiteSpace=wrap;html=1;" vertex="1" parent="1">
          <mxGeometry x="20" y="280" width="770" height="110" as="geometry" />
        </mxCell>
        <mxCell id="9GLl0irz_m333XcAd-_T-14" value="" style="ellipse;whiteSpace=wrap;html=1;aspect=fixed;" vertex="1" parent="1">
          <mxGeometry x="380" y="280" width="50" height="50" as="geometry" />
        </mxCell>
        <mxCell id="9GLl0irz_m333XcAd-_T-16" style="edgeStyle=none;curved=1;rounded=0;orthogonalLoop=1;jettySize=auto;html=1;exitX=1;exitY=0.5;exitDx=0;exitDy=0;fontSize=12;startSize=8;endSize=8;" edge="1" parent="1">
          <mxGeometry relative="1" as="geometry">
            <mxPoint x="100" y="490" as="sourcePoint" />
            <mxPoint x="100" y="490" as="targetPoint" />
          </mxGeometry>
        </mxCell>
        <mxCell id="9GLl0irz_m333XcAd-_T-17" value="" style="rounded=0;whiteSpace=wrap;html=1;" vertex="1" parent="1">
          <mxGeometry x="80" y="350" width="650" height="30" as="geometry" />
        </mxCell>
        <mxCell id="9GLl0irz_m333XcAd-_T-18" style="edgeStyle=none;curved=1;rounded=0;orthogonalLoop=1;jettySize=auto;html=1;exitX=0;exitY=0.5;exitDx=0;exitDy=0;fontSize=12;startSize=8;endSize=8;" edge="1" parent="1" source="9GLl0irz_m333XcAd-_T-13" target="9GLl0irz_m333XcAd-_T-13">
          <mxGeometry relative="1" as="geometry" />
        </mxCell>
        <mxCell id="9GLl0irz_m333XcAd-_T-24" style="edgeStyle=none;curved=1;rounded=0;orthogonalLoop=1;jettySize=auto;html=1;exitX=1;exitY=0.5;exitDx=0;exitDy=0;fontSize=12;startSize=8;endSize=8;" edge="1" parent="1">
          <mxGeometry relative="1" as="geometry">
            <mxPoint x="260" y="585" as="sourcePoint" />
            <mxPoint x="260" y="585" as="targetPoint" />
          </mxGeometry>
        </mxCell>
        <mxCell id="9GLl0irz_m333XcAd-_T-25" style="edgeStyle=none;curved=1;rounded=0;orthogonalLoop=1;jettySize=auto;html=1;exitX=1;exitY=0.5;exitDx=0;exitDy=0;fontSize=12;startSize=8;endSize=8;" edge="1" parent="1">
          <mxGeometry relative="1" as="geometry">
            <mxPoint x="110" y="500" as="sourcePoint" />
            <mxPoint x="110" y="500" as="targetPoint" />
          </mxGeometry>
        </mxCell>
        <mxCell id="9GLl0irz_m333XcAd-_T-26" value="WebSite." style="text;html=1;whiteSpace=wrap;strokeColor=none;fillColor=none;align=center;verticalAlign=middle;rounded=0;" vertex="1" parent="1">
          <mxGeometry x="20" y="185" width="140" height="40" as="geometry" />
        </mxCell>
        <mxCell id="9GLl0irz_m333XcAd-_T-27" style="edgeStyle=none;curved=1;rounded=0;orthogonalLoop=1;jettySize=auto;html=1;exitX=1;exitY=0.5;exitDx=0;exitDy=0;fontSize=12;startSize=8;endSize=8;" edge="1" source="9GLl0irz_m333XcAd-_T-26" target="9GLl0irz_m333XcAd-_T-26" parent="1">
          <mxGeometry relative="1" as="geometry" />
        </mxCell>
        <mxCell id="9GLl0irz_m333XcAd-_T-28" style="edgeStyle=none;curved=1;rounded=0;orthogonalLoop=1;jettySize=auto;html=1;exitX=1;exitY=0.5;exitDx=0;exitDy=0;fontSize=12;startSize=8;endSize=8;" edge="1" parent="1">
          <mxGeometry relative="1" as="geometry">
            <mxPoint x="40" y="155" as="sourcePoint" />
            <mxPoint x="40" y="155" as="targetPoint" />
          </mxGeometry>
        </mxCell>
      </root>
    </mxGraphModel>
  </diagram>
</mxfile>
